<?xml version="1.0" encoding="UTF-8" standalone="no"?>
<svg
   xmlns:dc="http://purl.org/dc/elements/1.1/"
   xmlns:cc="http://creativecommons.org/ns#"
   xmlns:rdf="http://www.w3.org/1999/02/22-rdf-syntax-ns#"
   xmlns:svg="http://www.w3.org/2000/svg"
   xmlns="http://www.w3.org/2000/svg"
   xmlns:sodipodi="http://sodipodi.sourceforge.net/DTD/sodipodi-0.dtd"
   xmlns:inkscape="http://www.inkscape.org/namespaces/inkscape"
   width="69.509315mm"
   height="21.721262mm"
   viewBox="0 0 246.29258 76.966319"
   version="1.1"
   id="svg2"
   inkscape:version="0.91 r13725"
   sodipodi:docname="fsinfo.svg">
  <metadata
     id="metadata104">
    <rdf:RDF>
      <cc:Work
         rdf:about="">
        <dc:format>image/svg+xml</dc:format>
        <dc:type
           rdf:resource="http://purl.org/dc/dcmitype/StillImage" />
        <dc:title></dc:title>
      </cc:Work>
    </rdf:RDF>
  </metadata>
  <defs
     id="defs102" />
  <sodipodi:namedview
     pagecolor="#ffffff"
     bordercolor="#666666"
     borderopacity="1"
     objecttolerance="10"
     gridtolerance="10"
     guidetolerance="10"
     inkscape:pageopacity="0"
     inkscape:pageshadow="2"
     inkscape:window-width="1920"
     inkscape:window-height="1176"
     id="namedview100"
     showgrid="false"
     inkscape:zoom="2.1173759"
     inkscape:cx="162.79179"
     inkscape:cy="-46.217143"
     inkscape:window-x="1366"
     inkscape:window-y="0"
     inkscape:window-maximized="1"
     inkscape:current-layer="svg2"
     fit-margin-top="0"
     fit-margin-left="0"
     fit-margin-right="0"
     fit-margin-bottom="0" />
  <g
     id="g4599"
     style="fill:#ffffff">
    <g
       id="g4595"
       style="fill:#ffffff">
      <path
         inkscape:connector-curvature="0"
         style="fill:#ffffff"
         id="path10"
         d="m 0.43163668,0.42786026 37.03285432,0 0,10.37167374 -23.310411,0 0,9.908344 21.920425,0 0,10.371673 -21.920425,0 0,22.561177 -13.72244332,0 0,-53.21489546 z" />
      <path
         inkscape:connector-curvature="0"
         style="fill:#ffffff"
         id="path12"
         d="m 85.147741,2.7386304 0,10.9755706 q -4.272064,-1.909783 -8.335663,-2.881964 -4.063599,-0.9721814 -7.675687,-0.9721814 -4.792734,0 -7.084869,1.3189654 -2.292134,1.318965 -2.292134,4.098178 0,2.083669 1.527431,3.264316 1.562998,1.146067 5.626597,1.978942 l 5.695757,1.146067 q 8.647868,1.735897 12.295523,5.278825 3.646667,3.541941 3.646667,10.072548 0,8.578709 -5.104939,12.781614 -5.070359,4.167338 -15.525259,4.167338 -4.932041,0 -9.898662,-0.937602 -4.96662,-0.937601 -9.933241,-2.778225 l 0,-11.287774 q 4.966621,2.638918 9.586457,3.993451 4.653428,1.318966 8.96106,1.318966 4.375804,0 6.703506,-1.458272 2.326714,-1.458272 2.326714,-4.167338 0,-2.430453 -1.597578,-3.750406 -1.562999,-1.318965 -6.286574,-2.361294 L 62.60776,31.392288 q -7.780413,-1.666737 -11.392501,-5.313405 -3.577508,-3.646667 -3.577508,-9.829502 0,-7.7448467 5.0012,-11.9131723 5.0012,-4.1673376 14.379192,-4.1673376 4.272065,0 8.787174,0.65898868 4.51511,0.62440902 9.343412,1.90978272 z" />
    </g>
    <path
       inkscape:connector-curvature="0"
       style="fill:#ffffff"
       id="path24"
       d="m -0.00209049,68.201868 4.93994509,0 0,0.978109 -3.777082,0 0,2.533204 3.4085621,0 0,0.978109 -3.4085621,0 0,4.105095 -1.16286309,0 0,-8.596493 z" />
    <path
       inkscape:connector-curvature="0"
       style="fill:#ffffff"
       id="path26"
       d="m 8.5953898,73.556769 q -1.2833977,0 -1.7783802,0.293432 -0.4949825,0.293433 -0.4949825,1.001821 0,0.564142 0.3675319,0.898082 0.3734599,0.328013 1.0126888,0.328013 0.8802982,0 1.4098603,-0.621446 0.53549,-0.627373 0.53549,-1.663773 l 0,-0.235141 -1.0531963,0 z m 2.1123202,-0.436692 0,3.679271 -1.0591239,0 0,-0.978109 q -0.362592,0.586866 -0.9030219,0.869431 -0.54043,0.275649 -1.3239053,0.275649 -0.989965,0 -1.5768304,-0.552286 -0.5809376,-0.558214 -0.5809376,-1.490876 0,-1.087776 0.7251839,-1.640061 0.7311119,-0.552286 2.1755518,-0.552286 l 1.4849475,0 0,-0.102751 q 0,-0.731112 -0.4831266,-1.128284 -0.4771987,-0.402111 -1.346629,-0.402111 -0.5522859,0 -1.0759201,0.13239 -0.5236341,0.132391 -1.0067607,0.397172 l 0,-0.978109 q 0.5809375,-0.224274 1.1282834,-0.33394 0.5463579,-0.114607 1.0650521,-0.114607 1.3989925,0 2.0895968,0.725184 0.690604,0.725184 0.690604,2.199263 z" />
    <path
       inkscape:connector-curvature="0"
       style="fill:#ffffff"
       id="path28"
       d="m 17.53669,70.597742 0,0.989965 q -0.448547,-0.246998 -0.903022,-0.367532 -0.448547,-0.126463 -0.90895,-0.126463 -1.030472,0 -1.600542,0.656025 -0.569082,0.650096 -0.569082,1.830743 0,1.179659 0.569082,1.836672 0.569082,0.650097 1.600542,0.650097 0.460403,0 0.90895,-0.120535 0.454475,-0.126463 0.903022,-0.37346 l 0,0.978109 q -0.442619,0.20649 -0.920806,0.310229 -0.471271,0.102751 -1.006761,0.102751 -1.456295,0 -2.31387,-0.914878 -0.857574,-0.914878 -0.857574,-2.469973 0,-1.57683 0.863502,-2.48084 0.86943,-0.903022 2.377102,-0.903022 0.489054,0 0.955385,0.102751 0.466331,0.09781 0.903022,0.299361 z" />
    <path
       inkscape:connector-curvature="0"
       style="fill:#ffffff"
       id="path30"
       d="m 24.751974,72.906672 0,3.891689 -1.059125,0 0,-3.85711 q 0,-0.914877 -0.356664,-1.37034 -0.356664,-0.454475 -1.07098,-0.454475 -0.857574,0 -1.352557,0.546358 -0.494982,0.546358 -0.494982,1.490875 l 0,3.644692 -1.065052,0 0,-8.959085 1.065052,0 0,3.512301 q 0.379388,-0.580937 0.892154,-0.86943 0.517706,-0.287505 1.191515,-0.287505 1.110499,0 1.680569,0.690604 0.569082,0.684677 0.569082,2.020438 z" />
    <path
       inkscape:connector-curvature="0"
       style="fill:#ffffff"
       id="path32"
       d="m 30.98816,70.53945 0,1.001821 q -0.448547,-0.230201 -0.932661,-0.344808 -0.483127,-0.114607 -1.001821,-0.114607 -0.788415,0 -1.185587,0.241069 -0.391244,0.24107 -0.391244,0.725184 0,0.367532 0.281577,0.580938 0.281577,0.20649 1.134212,0.397172 l 0.362592,0.08003 q 1.128283,0.241069 1.600542,0.684676 0.477198,0.436691 0.477198,1.226094 0,0.898082 -0.713328,1.421717 -0.7074,0.523634 -1.951278,0.523634 -0.517706,0 -1.081848,-0.102751 -0.558214,-0.09781 -1.179659,-0.299361 l 0,-1.093704 q 0.586866,0.304301 1.156935,0.460403 0.569082,0.149187 1.128284,0.149187 0.747907,0 1.151007,-0.252926 0.402111,-0.258853 0.402111,-0.725184 0,-0.431751 -0.293432,-0.661952 -0.287505,-0.230205 -1.271542,-0.442622 l -0.367532,-0.08595 q -0.984037,-0.20649 -1.421716,-0.633301 -0.436691,-0.431751 -0.436691,-1.179659 0,-0.90895 0.644169,-1.40492 0.644168,-0.494983 1.830743,-0.494983 0.586866,0 1.104572,0.08596 0.517706,0.08595 0.955385,0.258853 z" />
    <path
       inkscape:connector-curvature="0"
       style="fill:#ffffff"
       id="path34"
       d="m 37.666966,70.597742 0,0.989965 q -0.448547,-0.246998 -0.903022,-0.367532 -0.448547,-0.126463 -0.90895,-0.126463 -1.030472,0 -1.600542,0.656025 -0.569082,0.650096 -0.569082,1.830743 0,1.179659 0.569082,1.836672 0.569082,0.650097 1.600542,0.650097 0.460403,0 0.90895,-0.120535 0.454475,-0.126463 0.903022,-0.37346 l 0,0.978109 q -0.442619,0.20649 -0.920806,0.310229 -0.471271,0.102751 -1.006761,0.102751 -1.456295,0 -2.31387,-0.914878 -0.857574,-0.914878 -0.857574,-2.469973 0,-1.57683 0.863502,-2.48084 0.86943,-0.903022 2.377102,-0.903022 0.489054,0 0.955385,0.102751 0.466331,0.09781 0.903022,0.299361 z" />
    <path
       inkscape:connector-curvature="0"
       style="fill:#ffffff"
       id="path36"
       d="m 44.881262,72.906672 0,3.891689 -1.059125,0 0,-3.85711 q 0,-0.914877 -0.356664,-1.37034 -0.356664,-0.454475 -1.07098,-0.454475 -0.857574,0 -1.352557,0.546358 -0.494982,0.546358 -0.494982,1.490875 l 0,3.644692 -1.065052,0 0,-8.959085 1.065052,0 0,3.512301 q 0.379388,-0.580937 0.892154,-0.86943 0.517706,-0.287505 1.191515,-0.287505 1.110499,0 1.680569,0.690604 0.569082,0.684677 0.569082,2.020438 z" />
    <path
       inkscape:connector-curvature="0"
       style="fill:#ffffff"
       id="path38"
       d="m 49.936801,73.556769 q -1.283397,0 -1.77838,0.293432 -0.494982,0.293433 -0.494982,1.001821 0,0.564142 0.367531,0.898082 0.37346,0.328013 1.012689,0.328013 0.880298,0 1.40986,-0.621446 0.535491,-0.627373 0.535491,-1.663773 l 0,-0.235141 -1.053197,0 z m 2.112321,-0.436692 0,3.679271 -1.059124,0 0,-0.978109 q -0.362592,0.586866 -0.903022,0.869431 -0.54043,0.275649 -1.323906,0.275649 -0.989965,0 -1.57683,-0.552286 -0.580938,-0.558214 -0.580938,-1.490876 0,-1.087776 0.725184,-1.640061 0.731112,-0.552286 2.175552,-0.552286 l 1.484948,0 0,-0.102751 q 0,-0.731112 -0.483127,-1.128284 -0.477199,-0.402111 -1.346629,-0.402111 -0.552286,0 -1.07592,0.13239 -0.523634,0.132391 -1.006761,0.397172 l 0,-0.978109 q 0.580938,-0.224274 1.128284,-0.33394 0.546357,-0.114607 1.065052,-0.114607 1.398992,0 2.089596,0.725184 0.690605,0.725184 0.690605,2.199263 z" />
    <path
       inkscape:connector-curvature="0"
       style="fill:#ffffff"
       id="path40"
       d="m 57.502821,67.839276 0,0.880298 -1.012689,0 q -0.569081,0 -0.794343,0.230202 -0.218345,0.230201 -0.218345,0.828923 l 0,0.569081 1.7438,0 0,0.822995 -1.7438,0 0,5.624622 -1.065053,0 0,-5.624622 -1.012688,0 0,-0.822995 1.012688,0 0,-0.448547 q 0,-1.07592 0.500911,-1.565962 0.50091,-0.494983 1.588686,-0.494983 l 1.001821,0 z" />
    <path
       inkscape:connector-curvature="0"
       style="fill:#ffffff"
       id="path42"
       d="m 59.224886,68.519013 0,1.830743 2.18148,0 0,0.822995 -2.18148,0 0,3.500445 q 0,0.788415 0.212417,1.012689 0.218346,0.224273 0.880299,0.224273 l 1.087776,0 0,0.886227 -1.087776,0 q -1.226095,0 -1.692425,-0.454475 -0.466331,-0.460403 -0.466331,-1.669702 l 0,-3.500445 -0.77656,0 0,-0.822995 0.77656,0 0,-1.830743 1.065052,0 z" />
    <path
       inkscape:connector-curvature="0"
       style="fill:#ffffff"
       id="path44"
       d="m 69.82502,67.839276 0,0.880298 -1.012689,0 q -0.569082,0 -0.794343,0.230202 -0.218346,0.230201 -0.218346,0.828923 l 0,0.569081 1.743801,0 0,0.822995 -1.743801,0 0,5.624622 -1.065052,0 0,-5.624622 -1.012689,0 0,-0.822995 1.012689,0 0,-0.448547 q 0,-1.07592 0.500911,-1.565962 0.50091,-0.494983 1.588686,-0.494983 l 1.001821,0 z" />
    <path
       inkscape:connector-curvature="0"
       style="fill:#ffffff"
       id="path46"
       d="m 70.596639,74.253301 0,-3.903545 1.059124,0 0,3.863037 q 0,0.914878 0.356664,1.375281 0.356664,0.454475 1.070981,0.454475 0.857574,0 1.352556,-0.546358 0.500911,-0.546358 0.500911,-1.490875 l 0,-3.65556 1.059124,0 0,6.448605 -1.059124,0 0,-0.989965 q -0.385316,0.586865 -0.898082,0.87437 -0.50585,0.281577 -1.179659,0.281577 -1.1105,0 -1.686497,-0.690605 -0.57501,-0.690604 -0.57501,-2.020437 z m 2.665595,-4.058659 0,0 z m 0.529562,-2.331654 1.168791,0 0,1.162863 -1.168791,0 0,-1.162863 z m -2.250639,0 1.168791,0 0,1.162863 -1.168791,0 0,-1.162863 z" />
    <path
       inkscape:connector-curvature="0"
       style="fill:#ffffff"
       id="path48"
       d="m 81.928873,71.339721 q -0.177838,-0.102751 -0.391244,-0.149186 -0.206489,-0.05138 -0.460402,-0.05138 -0.898082,0 -1.381209,0.586865 -0.477199,0.580938 -0.477199,1.674641 l 0,3.396707 -1.065052,0 0,-6.448605 1.065052,0 0,1.001821 q 0.333941,-0.586865 0.869431,-0.86943 0.53549,-0.287505 1.301181,-0.287505 0.108679,0 0.241069,0.0168 0.132391,0.01087 0.293433,0.03952 l 0.0059,1.087776 z" />
    <path
       inkscape:connector-curvature="0"
       style="fill:#ffffff"
       id="path50"
       d="m 86.852022,68.201868 1.162863,0 0,8.596493 -1.162863,0 0,-8.596493 z" />
    <path
       inkscape:connector-curvature="0"
       style="fill:#ffffff"
       id="path52"
       d="m 95.644136,72.906672 0,3.891689 -1.059124,0 0,-3.85711 q 0,-0.914877 -0.356664,-1.37034 -0.356664,-0.454475 -1.07098,-0.454475 -0.857574,0 -1.352557,0.546358 -0.494982,0.546358 -0.494982,1.490875 l 0,3.644692 -1.065053,0 0,-6.448605 1.065053,0 0,1.001821 q 0.379387,-0.580937 0.892154,-0.86943 0.517706,-0.287505 1.191514,-0.287505 1.1105,0 1.68057,0.690604 0.569081,0.684677 0.569081,2.020438 z" />
    <path
       inkscape:connector-curvature="0"
       style="fill:#ffffff"
       id="path54"
       d="m 101.03362,67.839276 0,0.880298 -1.01269,0 q -0.569084,0 -0.794346,0.230202 -0.218345,0.230201 -0.218345,0.828923 l 0,0.569081 1.743801,0 0,0.822995 -1.743801,0 0,5.624622 -1.065052,0 0,-5.624622 -1.012689,0 0,-0.822995 1.012689,0 0,-0.448547 q 0,-1.07592 0.50091,-1.565962 0.500911,-0.494983 1.588693,-0.494983 l 1.00182,0 z" />
    <path
       inkscape:connector-curvature="0"
       style="fill:#ffffff"
       id="path56"
       d="m 104.41353,71.092724 q -0.85164,0 -1.34663,0.667881 -0.49498,0.661952 -0.49498,1.818887 0,1.156935 0.48905,1.824816 0.49499,0.661953 1.35256,0.661953 0.84572,0 1.3407,-0.667881 0.49499,-0.66788 0.49499,-1.818888 0,-1.145079 -0.49499,-1.812959 -0.49498,-0.672821 -1.3407,-0.672821 z m 0,-0.898082 q 1.38121,0 2.17061,0.898082 0.78842,0.898082 0.78842,2.486768 0,1.582759 -0.78842,2.486769 -0.78841,0.898082 -2.17061,0.898082 -1.38713,0 -2.17555,-0.898082 -0.78249,-0.903022 -0.78249,-2.486769 0,-1.588686 0.78249,-2.486768 0.78842,-0.898082 2.17555,-0.898082 z" />
    <path
       inkscape:connector-curvature="0"
       style="fill:#ffffff"
       id="path58"
       d="m 112.86084,71.339721 q -0.17784,-0.102751 -0.39125,-0.149186 -0.20649,-0.05138 -0.4604,-0.05138 -0.89808,0 -1.38121,0.586865 -0.4772,0.580938 -0.4772,1.674641 l 0,3.396707 -1.06505,0 0,-6.448605 1.06505,0 0,1.001821 q 0.33394,-0.586865 0.86943,-0.86943 0.53549,-0.287505 1.30119,-0.287505 0.10867,0 0.24106,0.0168 0.1324,0.01087 0.29344,0.03952 l 0.006,1.087776 z" />
    <path
       inkscape:connector-curvature="0"
       style="fill:#ffffff"
       id="path60"
       d="m 118.79668,71.587707 q 0.39717,-0.713329 0.94945,-1.053197 0.55229,-0.33888 1.30118,-0.33888 1.00677,0 1.55411,0.7074 0.54636,0.70246 0.54636,2.003642 l 0,3.891689 -1.06505,0 0,-3.85711 q 0,-0.926733 -0.32802,-1.37528 -0.32801,-0.448547 -1.00182,-0.448547 -0.82299,0 -1.30118,0.546358 -0.4772,0.546358 -0.4772,1.490875 l 0,3.644691 -1.06505,0 0,-3.857109 q 0,-0.932661 -0.32801,-1.37528 -0.32801,-0.448547 -1.01269,-0.448547 -0.81114,0 -1.28933,0.552286 -0.47719,0.546358 -0.47719,1.484947 l 0,3.644691 -1.06506,0 0,-6.448604 1.06506,0 0,1.001821 q 0.36259,-0.592793 0.86943,-0.87437 0.50585,-0.281577 1.20337,-0.281577 0.70246,0 1.19151,0.356664 0.49498,0.356664 0.73111,1.0364 z" />
    <path
       inkscape:connector-curvature="0"
       style="fill:#ffffff"
       id="path62"
       d="m 128.19937,73.556769 q -1.2834,0 -1.77838,0.293432 -0.49499,0.293433 -0.49499,1.001821 0,0.564142 0.36754,0.898082 0.37346,0.328013 1.01268,0.328013 0.8803,0 1.40987,-0.621446 0.53549,-0.627373 0.53549,-1.663773 l 0,-0.235141 -1.0532,0 z m 2.11232,-0.436692 0,3.679271 -1.05913,0 0,-0.978109 q -0.36259,0.586866 -0.90302,0.869431 -0.54043,0.275649 -1.3239,0.275649 -0.98997,0 -1.57683,-0.552286 -0.58094,-0.558214 -0.58094,-1.490876 0,-1.087776 0.72518,-1.640061 0.73111,-0.552286 2.17555,-0.552286 l 1.48495,0 0,-0.102751 q 0,-0.731112 -0.48313,-1.128284 -0.47719,-0.402111 -1.34662,-0.402111 -0.55229,0 -1.07592,0.13239 -0.52364,0.132391 -1.00677,0.397172 l 0,-0.978109 q 0.58094,-0.224274 1.12829,-0.33394 0.54636,-0.114607 1.06505,-0.114607 1.39899,0 2.0896,0.725184 0.6906,0.725184 0.6906,2.199263 z" />
    <path
       inkscape:connector-curvature="0"
       style="fill:#ffffff"
       id="path64"
       d="m 133.54933,68.519013 0,1.830743 2.18148,0 0,0.822995 -2.18148,0 0,3.500445 q 0,0.788415 0.21241,1.012689 0.21835,0.224273 0.8803,0.224273 l 1.08778,0 0,0.886227 -1.08778,0 q -1.22609,0 -1.69242,-0.454475 -0.46633,-0.460403 -0.46633,-1.669702 l 0,-3.500445 -0.77656,0 0,-0.822995 0.77656,0 0,-1.830743 1.06505,0 z" />
    <path
       inkscape:connector-curvature="0"
       style="fill:#ffffff"
       id="path66"
       d="m 137.13079,70.349756 1.05912,0 0,6.448605 -1.05912,0 0,-6.448605 z m 0,-2.51048 1.05912,0 0,1.340701 -1.05912,0 0,-1.340701 z" />
    <path
       inkscape:connector-curvature="0"
       style="fill:#ffffff"
       id="path68"
       d="m 140.36052,67.839276 1.06506,0 0,5.290681 3.16057,-2.780201 1.35256,0 -3.41943,3.016331 3.56368,3.431286 -1.38121,0 -3.27617,-3.148721 0,3.148721 -1.06506,0 0,-8.959085 z" />
    <path
       inkscape:connector-curvature="0"
       style="fill:#ffffff"
       id="path70"
       d="m 150.88656,74.253301 0,-3.903545 1.05912,0 0,3.863037 q 0,0.914878 0.35667,1.375281 0.35666,0.454475 1.07098,0.454475 0.85757,0 1.35255,-0.546358 0.50091,-0.546358 0.50091,-1.490875 l 0,-3.65556 1.05913,0 0,6.448605 -1.05913,0 0,-0.989965 q -0.38531,0.586865 -0.89808,0.87437 -0.50585,0.281577 -1.17966,0.281577 -1.1105,0 -1.68649,-0.690605 -0.57501,-0.690604 -0.57501,-2.020437 z m 2.66559,-4.058659 0,0 z" />
    <path
       inkscape:connector-curvature="0"
       style="fill:#ffffff"
       id="path72"
       d="m 163.84206,72.906672 0,3.891689 -1.05913,0 0,-3.85711 q 0,-0.914877 -0.35666,-1.37034 -0.35666,-0.454475 -1.07098,-0.454475 -0.85757,0 -1.35256,0.546358 -0.49498,0.546358 -0.49498,1.490875 l 0,3.644692 -1.06505,0 0,-6.448605 1.06505,0 0,1.001821 q 0.37939,-0.580937 0.89215,-0.86943 0.51771,-0.287505 1.19152,-0.287505 1.1105,0 1.68057,0.690604 0.56908,0.684677 0.56908,2.020438 z" />
    <path
       inkscape:connector-curvature="0"
       style="fill:#ffffff"
       id="path74"
       d="m 170.20965,71.328853 0,-3.488589 1.05912,0 0,8.959084 -1.05912,0 0,-0.967241 q -0.33394,0.57501 -0.84572,0.857575 -0.50585,0.275649 -1.22017,0.275649 -1.16879,0 -1.90583,-0.932662 -0.73111,-0.932662 -0.73111,-2.452189 0,-1.519527 0.73111,-2.452188 0.73605,-0.932662 1.90583,-0.932662 0.71333,0 1.22017,0.281577 0.51178,0.275649 0.84572,0.851646 z m -3.61011,2.250639 q 0,1.168791 0.47719,1.836672 0.48313,0.661953 1.32391,0.661953 0.83979,0 1.3239,-0.661953 0.48313,-0.667881 0.48313,-1.836672 0,-1.168791 -0.48313,-1.830743 -0.48312,-0.667881 -1.3239,-0.667881 -0.83979,0 -1.32391,0.667881 -0.47719,0.661952 -0.47719,1.830743 z" />
    <path
       inkscape:connector-curvature="0"
       style="fill:#ffffff"
       id="path76"
       d="m 177.25203,68.201868 1.73294,0 2.19333,5.849883 2.20519,-5.849883 1.73294,0 0,8.596493 -1.13422,0 0,-7.548236 -2.21606,5.89533 -1.16879,0 -2.21606,-5.89533 0,7.548236 -1.12828,0 0,-8.596493 z" />
    <path
       inkscape:connector-curvature="0"
       style="fill:#ffffff"
       id="path78"
       d="m 190.3172,73.556769 q -1.2834,0 -1.77838,0.293432 -0.49498,0.293433 -0.49498,1.001821 0,0.564142 0.36753,0.898082 0.37346,0.328013 1.01269,0.328013 0.8803,0 1.40986,-0.621446 0.53549,-0.627373 0.53549,-1.663773 l 0,-0.235141 -1.0532,0 z m 2.11232,-0.436692 0,3.679271 -1.05912,0 0,-0.978109 q -0.3626,0.586866 -0.90401,0.869431 -0.54043,0.275649 -1.32391,0.275649 -0.98996,0 -1.57683,-0.552286 -0.58094,-0.558214 -0.58094,-1.490876 0,-1.087776 0.72519,-1.640061 0.73111,-0.552286 2.17555,-0.552286 l 1.48495,0 0,-0.102751 q 0,-0.731112 -0.48313,-1.128284 -0.4772,-0.402111 -1.34663,-0.402111 -0.55229,0 -1.07592,0.13239 -0.52363,0.132391 -1.00676,0.397172 l 0,-0.978109 q 0.58094,-0.224274 1.12828,-0.33394 0.54636,-0.114607 1.06505,-0.114607 1.399,0 2.0896,0.725184 0.69061,0.725184 0.69061,2.199263 z" />
    <path
       inkscape:connector-curvature="0"
       style="fill:#ffffff"
       id="path80"
       d="m 195.66617,68.519013 0,1.830743 2.18148,0 0,0.822995 -2.18148,0 0,3.500445 q 0,0.788415 0.21242,1.012689 0.21834,0.224273 0.8803,0.224273 l 1.08777,0 0,0.886227 -1.08777,0 q -1.2261,0 -1.69243,-0.454475 -0.46633,-0.460403 -0.46633,-1.669702 l 0,-3.500445 -0.77656,0 0,-0.822995 0.77656,0 0,-1.830743 1.06505,0 z" />
    <path
       inkscape:connector-curvature="0"
       style="fill:#ffffff"
       id="path82"
       d="m 204.60846,72.906672 0,3.891689 -1.05912,0 0,-3.85711 q 0,-0.914877 -0.35667,-1.37034 -0.35666,-0.454475 -1.07098,-0.454475 -0.85757,0 -1.35256,0.546358 -0.49498,0.546358 -0.49498,1.490875 l 0,3.644692 -1.06505,0 0,-8.959085 1.06505,0 0,3.512301 q 0.37939,-0.580937 0.89216,-0.86943 0.5177,-0.287505 1.19151,-0.287505 1.1105,0 1.68057,0.690604 0.56908,0.684677 0.56908,2.020438 z" />
    <path
       inkscape:connector-curvature="0"
       style="fill:#ffffff"
       id="path84"
       d="m 212.24858,73.309771 0,0.517707 -4.87079,0 q 0.0682,1.093703 0.65603,1.669701 0.59279,0.569082 1.64599,0.569082 0.60959,0 1.17966,-0.149187 0.57501,-0.149186 1.13915,-0.448547 l 0,1.001821 q -0.56908,0.241069 -1.16879,0.367532 -0.59872,0.126463 -1.21424,0.126463 -1.54225,0 -2.44626,-0.898082 -0.89808,-0.898082 -0.89808,-2.429465 0,-1.582759 0.85164,-2.51048 0.85758,-0.932662 2.30893,-0.932662 1.30118,0 2.05502,0.839791 0.75976,0.83485 0.75976,2.27435 z m -1.05913,-0.310228 q -0.0109,-0.869431 -0.48905,-1.387137 -0.47127,-0.517706 -1.25475,-0.517706 -0.88622,0 -1.42171,0.50091 -0.52956,0.500911 -0.60959,1.409861 l 3.77708,-0.0059 z" />
    <path
       inkscape:connector-curvature="0"
       style="fill:#ffffff"
       id="path86"
       d="m 219.0084,71.587707 q 0.39717,-0.713329 0.94946,-1.053197 0.55228,-0.33888 1.30118,-0.33888 1.00676,0 1.55411,0.7074 0.54635,0.70246 0.54635,2.003642 l 0,3.891689 -1.06505,0 0,-3.85711 q 0,-0.926733 -0.32801,-1.37528 -0.32801,-0.448547 -1.00182,-0.448547 -0.823,0 -1.30118,0.546358 -0.4772,0.546358 -0.4772,1.490875 l 0,3.644691 -1.06505,0 0,-3.857109 q 0,-0.932661 -0.32802,-1.37528 -0.32801,-0.448547 -1.01269,-0.448547 -0.81113,0 -1.28932,0.552286 -0.4772,0.546358 -0.4772,1.484947 l 0,3.644691 -1.06505,0 0,-6.448604 1.06505,0 0,1.001821 q 0.36259,-0.592793 0.86943,-0.87437 0.50585,-0.281577 1.20337,-0.281577 0.70246,0 1.19152,0.356664 0.49498,0.356664 0.73111,1.0364 z" />
    <path
       inkscape:connector-curvature="0"
       style="fill:#ffffff"
       id="path88"
       d="m 228.41109,73.556769 q -1.2834,0 -1.77838,0.293432 -0.49498,0.293433 -0.49498,1.001821 0,0.564142 0.36753,0.898082 0.37346,0.328013 1.01269,0.328013 0.8803,0 1.40986,-0.621446 0.53549,-0.627373 0.53549,-1.663773 l 0,-0.235141 -1.0532,0 z m 2.11232,-0.436692 0,3.679271 -1.05912,0 0,-0.978109 q -0.36259,0.586866 -0.90302,0.869431 -0.54043,0.275649 -1.32391,0.275649 -0.98996,0 -1.57683,-0.552286 -0.58094,-0.558214 -0.58094,-1.490876 0,-1.087776 0.72519,-1.640061 0.73111,-0.552286 2.17555,-0.552286 l 1.48495,0 0,-0.102751 q 0,-0.731112 -0.48313,-1.128284 -0.4772,-0.402111 -1.34663,-0.402111 -0.55229,0 -1.07592,0.13239 -0.52363,0.132391 -1.00676,0.397172 l 0,-0.978109 q 0.58094,-0.224274 1.12828,-0.33394 0.54636,-0.114607 1.06505,-0.114607 1.399,0 2.0896,0.725184 0.69061,0.725184 0.69061,2.199263 z" />
    <path
       inkscape:connector-curvature="0"
       style="fill:#ffffff"
       id="path90"
       d="m 233.76105,68.519013 0,1.830743 2.18148,0 0,0.822995 -2.18148,0 0,3.500445 q 0,0.788415 0.21242,1.012689 0.21834,0.224273 0.8803,0.224273 l 1.08777,0 0,0.886227 -1.08777,0 q -1.2261,0 -1.69243,-0.454475 -0.46633,-0.460403 -0.46633,-1.669702 l 0,-3.500445 -0.77656,0 0,-0.822995 0.77656,0 0,-1.830743 1.06505,0 z" />
    <path
       inkscape:connector-curvature="0"
       style="fill:#ffffff"
       id="path92"
       d="m 237.34251,70.349756 1.05913,0 0,6.448605 -1.05913,0 0,-6.448605 z m 0,-2.51048 1.05913,0 0,1.340701 -1.05913,0 0,-1.340701 z" />
    <path
       inkscape:connector-curvature="0"
       style="fill:#ffffff"
       id="path94"
       d="m 240.57225,67.839276 1.06505,0 0,5.290681 3.16058,-2.780201 1.35255,0 -3.41943,3.016331 3.56368,3.431286 -1.38121,0 -3.27617,-3.148721 0,3.148721 -1.06505,0 0,-8.959085 z" />
    <g
       id="g4587"
       style="fill:#ffffff">
      <path
         d="m 119.16421,15.144883 6.39031,0 0,38.902067 -6.39031,0 0,-38.902067 z m 0,-15.14389501 6.39031,0 0,8.09261781 -6.39031,0 0,-8.09261781 z"
         id="path16"
         style="fill:#ffffff"
         inkscape:connector-curvature="0" />
      <path
         d="m 171.23024,30.566403 0,23.479559 -6.39031,0 0,-23.271093 q 0,-5.521871 -2.15283,-8.266504 -2.15283,-2.743646 -6.46046,-2.743646 -5.17509,0 -8.16178,3.298896 -2.98669,3.298895 -2.98669,8.99564 l 0,21.985719 -6.42489,0 0,-38.902067 6.42489,0 0,6.043529 q 2.29214,-3.507361 5.38355,-5.244246 3.126,-1.735897 7.1896,-1.735897 6.7035,0 10.14171,4.167338 3.4382,4.132758 3.4382,12.190796 z"
         id="path18"
         style="fill:#ffffff"
         inkscape:connector-curvature="0" />
      <path
         d="m 203.74101,9.8799e-4 0,5.31340481 -6.11269,0 q -3.4382,0 -4.79274,1.3891125 -1.31896,1.3891126 -1.31896,5.0011997 l 0,3.438202 10.52406,0 0,4.966621 -10.52406,0 0,33.934458 -6.42489,0 0,-33.934458 -6.11269,0 0,-4.966621 6.11269,0 0,-2.709066 q 0,-6.4950392 3.02127,-9.4471503 Q 191.13427,0 197.69945,0 l 6.04353,0 z"
         id="path20"
         style="fill:#ffffff"
         inkscape:connector-curvature="0" />
      <g
         id="g4583"
         style="fill:#ffffff">
        <path
           d="m 223.14807,11.190951 5.85977,0 0,19.659993 -5.85977,0 z"
           id="path96"
           style="fill:#ffffff"
           inkscape:connector-curvature="0" />
        <path
           inkscape:connector-curvature="0"
           id="path98"
           d="m 238.56641,18.833984 -3.5625,4.373047 c 3.18669,2.595529 5.21875,6.526605 5.21875,10.972657 0,7.843983 -6.2996,14.144531 -14.14454,14.144531 -7.84493,0 -14.14257,-6.300548 -14.14257,-14.144531 0,-4.414691 2.00119,-8.319554 5.14843,-10.916016 l -3.58984,-4.351563 c -4.39505,3.625893 -7.19922,9.138451 -7.19922,15.267579 0,10.89224 8.88994,19.785156 19.7832,19.785156 10.89327,0 19.78321,-8.892916 19.78321,-19.785156 0,-6.172855 -2.84447,-11.720855 -7.29492,-15.345704 z"
           style="color:#000000;font-style:normal;font-variant:normal;font-weight:normal;font-stretch:normal;font-size:medium;line-height:normal;font-family:sans-serif;text-indent:0;text-align:start;text-decoration:none;text-decoration-line:none;text-decoration-style:solid;text-decoration-color:#000000;letter-spacing:normal;word-spacing:normal;text-transform:none;direction:ltr;block-progression:tb;writing-mode:lr-tb;baseline-shift:baseline;text-anchor:start;white-space:normal;clip-rule:nonzero;display:inline;overflow:visible;visibility:visible;opacity:1;isolation:auto;mix-blend-mode:normal;color-interpolation:sRGB;color-interpolation-filters:linearRGB;solid-color:#000000;solid-opacity:1;fill:#ffffff;fill-opacity:1;fill-rule:nonzero;stroke:none;stroke-width:5.64008951;stroke-linecap:butt;stroke-linejoin:miter;stroke-miterlimit:4;stroke-dasharray:none;stroke-dashoffset:0;stroke-opacity:1;color-rendering:auto;image-rendering:auto;shape-rendering:auto;text-rendering:auto;enable-background:accumulate" />
      </g>
    </g>
  </g>
</svg>
